<?xml version="1.0" encoding="UTF-8" standalone="no"?>
<!-- Creator: CorelDRAW X7 -->

<svg
   xmlns:dc="http://purl.org/dc/elements/1.1/"
   xmlns:cc="http://creativecommons.org/ns#"
   xmlns:rdf="http://www.w3.org/1999/02/22-rdf-syntax-ns#"
   xmlns:svg="http://www.w3.org/2000/svg"
   xmlns="http://www.w3.org/2000/svg"
   xmlns:sodipodi="http://sodipodi.sourceforge.net/DTD/sodipodi-0.dtd"
   xmlns:inkscape="http://www.inkscape.org/namespaces/inkscape"
   xml:space="preserve"
   width="71.781mm"
   height="80.9728mm"
   version="1.1"
   style="shape-rendering:geometricPrecision; text-rendering:geometricPrecision; image-rendering:optimizeQuality; fill-rule:evenodd; clip-rule:evenodd"
   viewBox="0 0 7178 8097"
   id="svg27"
   sodipodi:docname="xred.svg"
   inkscape:version="0.92.1 r15371"><metadata
     id="metadata31"><rdf:RDF><cc:Work
         rdf:about=""><dc:format>image/svg+xml</dc:format><dc:type
           rdf:resource="http://purl.org/dc/dcmitype/StillImage" /><dc:title></dc:title></cc:Work></rdf:RDF></metadata><sodipodi:namedview
     pagecolor="#ffffff"
     bordercolor="#666666"
     borderopacity="1"
     objecttolerance="10"
     gridtolerance="10"
     guidetolerance="10"
     inkscape:pageopacity="0"
     inkscape:pageshadow="2"
     inkscape:window-width="1366"
     inkscape:window-height="705"
     id="namedview29"
     showgrid="false"
     inkscape:snap-grids="false"
     inkscape:zoom="1"
     inkscape:cx="221.37385"
     inkscape:cy="189.20969"
     inkscape:window-x="-8"
     inkscape:window-y="-8"
     inkscape:window-maximized="1"
     inkscape:current-layer="Layer_x0020_1"><inkscape:grid
       type="xygrid"
       id="grid4549" /></sodipodi:namedview><defs
     id="defs4"><style
       type="text/css"
       id="style2"><![CDATA[
    .fil0 {fill:#2B3841;fill-rule:nonzero}
    .fil2 {fill:#B20000;fill-rule:nonzero}
    .fil1 {fill:#D8171D;fill-rule:nonzero}
   ]]></style></defs><g
     id="Layer_x0020_1"><metadata
       id="CorelCorpID_0Corel-Layer" /><g
       id="_289906288"><polygon
         class="fil0"
         points="655,7151 24,6273 470,6273 882,6861 1294,6273 1730,6273 1098,7141 1757,8057 1311,8057 872,7432 436,8057 0,8057 "
         id="polygon7" /><path
         class="fil1"
         d="M2148 6310l260 0 0 456c32,-72 71,-138 119,-199 47,-61 101,-113 162,-157 61,-44 127,-77 199,-100 72,-22 150,-32 233,-30l0 280 -20 0c-95,0 -184,17 -269,51 -84,34 -158,84 -221,152 -63,68 -112,151 -148,252 -37,100 -55,215 -55,346l0 696 -260 0 0 -1747z"
         id="path9" /><path
         class="fil1"
         d="M4797 7077c-7,-78 -24,-152 -51,-223 -27,-71 -64,-133 -110,-187 -46,-53 -102,-96 -169,-127 -66,-31 -142,-47 -228,-47 -74,0 -144,14 -209,44 -65,28 -123,69 -172,122 -50,53 -91,115 -124,186 -32,72 -53,149 -62,232l1125 0zm-1125 213c9,92 31,174 67,247 36,72 83,132 139,182 56,49 119,87 189,113 70,26 143,39 220,39 121,0 225,-23 312,-68 87,-45 166,-104 238,-179l162 146c-87,99 -188,178 -300,238 -113,59 -253,89 -419,89 -120,0 -232,-22 -338,-66 -106,-43 -198,-105 -277,-185 -79,-80 -141,-177 -187,-289 -47,-113 -70,-237 -70,-372 0,-126 21,-245 63,-356 41,-112 99,-208 174,-291 74,-82 162,-147 265,-194 102,-47 214,-71 336,-71 128,0 243,24 345,73 101,48 187,114 256,197 70,84 123,182 159,294 36,113 54,233 54,362 0,11 0,24 0,39 0,14 -1,32 -3,52l-1385 0z"
         id="path11" /><path
         class="fil1"
         d="M6296 7861c82,0 160,-16 235,-49 76,-33 143,-79 203,-139 60,-59 107,-130 142,-212 35,-83 52,-174 52,-276l0 -7c0,-101 -17,-193 -52,-275 -35,-82 -82,-152 -142,-211 -60,-58 -127,-104 -203,-137 -75,-32 -153,-49 -235,-49 -85,0 -165,15 -239,46 -75,30 -139,74 -195,132 -55,57 -99,127 -131,211 -33,83 -49,178 -49,283l0 7c0,104 16,197 49,281 32,83 77,154 133,212 56,59 122,104 196,136 74,31 153,47 236,47zm-47 233c-106,0 -208,-20 -307,-61 -99,-40 -188,-100 -267,-177 -79,-78 -142,-173 -189,-284 -48,-111 -71,-239 -71,-383l0 -7c0,-142 23,-269 71,-382 47,-112 110,-208 189,-285 79,-78 168,-138 267,-179 99,-42 201,-63 307,-63 81,0 156,10 223,31 68,20 128,47 183,81 54,33 103,73 146,118 44,45 83,92 117,142l0 -1054 260 0 0 2466 -260 0 0 -352c-36,52 -76,102 -120,149 -44,47 -93,89 -147,125 -54,36 -114,64 -181,85 -66,20 -140,30 -221,30z"
         id="path13" /><polygon
         class="fil2"
         points="4256,5475 4061,5475 4061,5280 4256,5280 "
         id="polygon15" /><path
         class="fil1"
         d="M3189 1973l-1332 918 0 2389 285 0c33,-53 91,-88 158,-88 103,0 186,83 186,186 0,102 -83,185 -186,185 -67,0 -125,-35 -158,-88l-479 0 0 -2686 1721 -1186 0 3872 -448 0 0 -195 253 0 0 -3307z"
         id="path17" /><path
         class="fil1"
         d="M5516 3383l0 2092 -785 0 0 -195 590 0 0 -1790 -1084 -682 0 2411c53,33 88,92 88,159 0,102 -83,185 -186,185 -102,0 -186,-83 -186,-185 0,-67 36,-126 89,-159l0 -2763 1474 927z"
         id="path19" /><path
         style="fill:#2b3841;fill-rule:nonzero;stroke-width:0.0377958"
         d="m 121.56836,32.751953 v 8.503907 l 49.73634,29.164062 0.14064,34.156248 7.23047,4.5918 0.0625,-42.91211 z m 49.75196,120.046877 0.12109,54.13672 h 7.37109 l -0.15229,-89.14063 -7.30274,-4.61132 c 0.001,3.33892 -0.0132,30.01718 -0.0527,39.63085 z"
         transform="matrix(26.457967,0,0,26.457967,0,-0.08403665)"
         id="polygon23"
         inkscape:connector-curvature="0"
         sodipodi:nodetypes="cccccccccccccc" /></g><path
       style="clip-rule:evenodd;fill:#2b3841;fill-rule:nonzero;stroke-width:0.0377958;image-rendering:optimizeQuality;shape-rendering:geometricPrecision;text-rendering:geometricPrecision"
       d="m 107.26367,0.00390625 c -3.85517,0 -6.99219,3.81665395 -6.99219,7.02929685 0,3.1748469 1.323,4.7253949 3.32618,5.9726559 l 0.004,64.327999 c 2.45408,-1.690091 4.92417,-3.386341 7.36718,-5.062374 V 13.005859 c 2.00318,-1.247261 3.32617,-2.797809 3.32617,-5.9726559 0,-3.2126429 -3.13828,-7.02929685 -7.03125,-7.02929685 z m 3.69727,81.14648475 c -2.43366,1.706931 -4.92004,3.399771 -7.36328,5.085935 V 206.93555 h 7.37109 z"
       transform="matrix(26.457967,0,0,26.457967,0,-0.08403665)"
       id="path21"
       inkscape:connector-curvature="0"
       sodipodi:nodetypes="ssccccssccccc" /><g
       id="g4524" /></g></svg>